PathFileType	4	(X/Y/Z)	C:/Users/beibeiliu/ov580/test_trc\sequence.39_training_dense_left.trc
DataRate	CameraRate	NumFrames	NumMarkers	Units	OrigDataRate	OrigDataStartFrame	OrigNumFrames
120	120	7	19	mm	120	201	400
Frame#	Time	ThumbCMC			ThumbMCP			ThumbIP			ThumbTip			IndexMCP			IndexPIP			IndexTip			MiddleMCP			MiddlePIP			MiddleTip			RingMCP			RingPIP			RingTip			PinkyMCP			PinkyPIP			PinkyTip			BackHand1			BackHand2			BackHand3	
		X0	Y0	Z0	X1	Y1	Z1	X2	Y2	Z2	X3	Y3	Z3	X4	Y4	Z4	X5	Y5	Z5	X6	Y6	Z6	X7	Y7	Z7	X8	Y8	Z8	X9	Y9	Z9	X10	Y10	Z10	X11	Y11	Z11	X12	Y12	Z12	X13	Y13	Z13	X14	Y14	Z14	X15	Y15	Z15	X16	Y16	Z16	X17	Y17	Z17	X18	Y18	Z18	
200	1.66667	-267.215	-15.6816	58.4742	-279.552	-17.5123	33.8061	-279.999	-20.3406	8.86777	-264.362	-20.1081	-8.8331	-253.927	-38.9469	-7.03985	-256.4	-19.64	-24.4786	-260.707	6.75145	-6.50997	-235.504	-36.0827	-7.13888	-240.959	-7.93806	-25.6159	-239.63	10.8084	-0.732182	-222.701	-32.1834	-1.53837	-223.457	-9.71151	-18.5688	-233.248	10.8454	1.18007	-206.068	-26.9383	7.17513	-210.899	-9.67356	-9.54429	-222.172	13.2208	0.904947	-219.716	-37.6014	47.4094	-219.402	-31.1702	72.3819	-244.862	-37.5271	60.7707	
201	1.675	-269.431	-16.4557	59.5707	-285.16	-15.5963	36.3832	-280.909	-20.0112	13.2397	-266.707	-19.031	-8.0151	-254.336	-39.7756	-2.4693	-254.905	-18.6048	-23.9546	-259.431	3.75291	-10.2045	-240.127	-37.8849	-8.05928	-240.414	-10.1853	-25.0867	-241.76	11.363	-3.95062	-218.705	-32.9277	-4.48007	-223.068	-7.67923	-18.174	-231.282	12.4626	1.07193	-204.728	-28.0898	6.41582	-210.668	-8.47132	-11.2514	-221.728	9.99389	-2.05108	-220.301	-40.0336	44.6453	-223.123	-31.483	74.4076	-246.968	-38.5552	62.1026	
202	1.68333	-269.354	-13.9042	63.4127	-278.643	-18.5256	35.1665	-277.888	-20.9736	12.2596	-266.71	-18.9467	-10.0409	-258.912	-41.1872	-0.0880957	-258.693	-21.9747	-25.2516	-258.276	3.03925	-12.259	-241.564	-38.8015	-5.63495	-243.201	-12.1497	-26.7614	-240.119	10.5496	-6.58168	-224.677	-34.3267	-2.79876	-227.072	-14.3446	-19.2266	-233.245	9.02495	-4.39169	-207.332	-28.5327	4.77425	-210.431	-14.9026	-10.7124	-222.36	8.75503	-5.98061	-223.663	-39.5728	44.8702	-224.525	-34.2973	72.9778	-247.643	-38.5554	57.5752	
203	1.69167	-270.756	-16.4453	60.5409	-282.628	-17.5063	32.7135	-280.29	-20.8607	9.10598	-265.107	-20.4956	-7.54716	-256.916	-41.8746	-0.838716	-259.707	-25.9957	-24.8443	-258.532	2.91122	-12.97	-240.78	-39.1941	-4.99762	-243.049	-15.4581	-26.579	-245.428	8.92491	-7.6902	-220.868	-34.6121	-1.63498	-227.935	-10.8645	-18.691	-231.55	11.3782	-2.31415	-207.562	-30.1461	9.89269	-212.602	-14.5575	-11.1126	-223.369	4.43027	-6.75647	-220.873	-40.3948	44.9989	-219.835	-34.0541	74.197	-251.167	-38.5996	58.5359	
204	1.7	-267.551	-16.8892	60.9029	-282.508	-17.5217	34.4658	-279.38	-18.7259	14.173	-265.403	-20.1261	-10.2806	-260.556	-42.0136	-4.64572	-255.016	-22.8689	-23.6513	-258.756	4.12031	-9.80501	-238.215	-39.7954	-5.77632	-239.771	-18.3993	-26.6113	-239.942	8.54552	-6.71637	-224.111	-35.8278	-1.23991	-227.155	-11.969	-18.5245	-230.863	8.21448	-5.79538	-207.096	-31.2914	10.2496	-211.274	-16.296	-10.301	-220.928	6.38269	-7.24121	-224.943	-40.9216	47.568	-225.123	-34.124	73.4875	-249.507	-39.7762	60.9285	
205	1.70833	-272.293	-16.3937	60.736	-283.121	-13.9737	37.2486	-279.338	-19.6041	10.6536	-270.487	-18.2407	-10.7153	-259.288	-41.9646	0.46199	-259.879	-23.0476	-23.8835	-257.998	3.51462	-11.6845	-242.054	-40.9099	-5.46685	-237.961	-17.8114	-25.8808	-240.886	8.52923	-4.55644	-220.575	-37.0363	-3.63899	-224.337	-13.1558	-19.1515	-233.737	6.28571	-6.84328	-209.49	-32.8956	6.43389	-211.229	-16.9101	-9.5394	-224.01	2.84907	-8.02514	-225.298	-43.451	48.6246	-220.933	-34.3849	74.3094	-248.416	-39.6416	61.2132	
206	1.71667	-270.287	-15.8119	59.0745	-281.504	-12.8911	35.2531	-278.926	-16.7414	11.4882	-269.772	-17.3553	-13.9404	-256.836	-41.5306	-0.878353	-258.509	-20.9696	-24.0222	-258.957	4.75245	-11.6461	-242.527	-39.7873	-7.16818	-237.043	-16.6084	-25.0888	-242.256	7.71331	-6.15833	-221.067	-37.5222	-0.550607	-225.88	-15.4129	-19.3042	-230.142	8.19934	-2.88302	-208.2	-32.3001	11.1747	-212.831	-17.0828	-9.41068	-226.352	5.9556	-4.82167	-226.412	-43.413	48.1888	-222.038	-34.7814	76.3094	-251.88	-39.1276	58.4257	
